<svg xmlns="http://www.w3.org/2000/svg" xmlns:xlink="http://www.w3.org/1999/xlink" width="500" zoomAndPan="magnify" viewBox="0 0 375 374.999991" height="500" preserveAspectRatio="xMidYMid meet" version="1.0"><defs><g/><clipPath id="d7ccf4a8fb"><path d="M 19.269531 91.117188 L 106.269531 91.117188 L 106.269531 211 L 19.269531 211 Z M 19.269531 91.117188 " clip-rule="nonzero"/></clipPath></defs><g clip-path="url(#d7ccf4a8fb)"><path fill="#000000" d="M 56.535156 93.519531 C 60.996094 90.519531 66.074219 91.175781 70.269531 94.363281 C 71.371094 95.207031 72.3125 96.234375 73.0625 97.484375 C 73.695312 98.550781 74.816406 100.722656 72.730469 101.058594 C 71.914062 101.195312 70.472656 100.082031 69.375 99.722656 C 67.953125 99.265625 66.492188 98.96875 65.042969 98.820312 C 62.335938 98.539062 59.679688 98.761719 57.394531 99.394531 C 56.148438 99.730469 54.949219 100.148438 53.792969 100.683594 C 53.257812 100.933594 52.15625 101.660156 51.855469 100.722656 C 51.15625 98.550781 54.929688 94.597656 56.535156 93.519531 Z M 22.695312 168.742188 L 29.0625 168.742188 C 32.253906 163.800781 39.125 161.222656 45.265625 158.914062 C 46.492188 158.449219 47.691406 158.003906 48.820312 157.550781 L 48.839844 157.53125 C 49.878906 156.648438 50.949219 155.59375 51.796875 154.652344 C 52.421875 153.953125 52.917969 153.355469 53.179688 152.964844 C 52.964844 152.78125 52.742188 152.597656 52.527344 152.394531 C 50.949219 150.980469 49.519531 149.226562 48.226562 147.191406 C 47.027344 145.300781 45.949219 143.160156 44.976562 140.796875 C 44.546875 140.671875 44.136719 140.515625 43.75 140.332031 C 43.195312 140.070312 42.6875 139.769531 42.230469 139.421875 C 40.878906 138.394531 39.992188 136.988281 39.464844 135.449219 C 38.890625 133.722656 38.785156 131.824219 39.019531 130.070312 C 39.144531 129.160156 39.398438 128.375 39.777344 127.714844 C 40.175781 127.027344 40.710938 126.464844 41.375 126.039062 C 41.566406 125.914062 41.792969 125.863281 42.007812 125.882812 C 41.625 123.945312 41.683594 122.09375 41.773438 119.914062 C 41.976562 114.226562 43.425781 109.683594 47.933594 105.738281 C 54.726562 99.789062 68.167969 99.277344 75.652344 104.394531 C 76.761719 105.160156 77.792969 106.058594 78.71875 107.117188 C 81.753906 110.585938 84.449219 118.199219 84.402344 122.890625 C 84.390625 123.976562 84.207031 125.078125 83.835938 126.203125 C 83.816406 126.3125 83.796875 126.4375 83.769531 126.570312 C 84.597656 127.085938 85.238281 127.714844 85.707031 128.433594 C 86.40625 129.5 86.707031 130.71875 86.640625 132.007812 C 86.570312 133.25 86.144531 134.554688 85.363281 135.824219 C 84.46875 137.296875 83.085938 138.742188 81.257812 139.992188 C 79.660156 143.703125 77.421875 147.425781 74.71875 150.410156 C 73.851562 151.367188 72.925781 152.25 71.964844 153.035156 C 72.742188 153.867188 74.183594 155.109375 75.554688 156.28125 C 75.796875 156.484375 76.042969 156.695312 76.285156 156.910156 C 77.597656 157.5 78.882812 158.023438 80.167969 158.558594 C 85.902344 160.890625 91.730469 163.277344 94.757812 168.742188 L 102.855469 168.742188 C 104.898438 168.742188 106.554688 170.640625 106.242188 172.964844 L 101.8125 206.421875 C 101.511719 208.730469 99.90625 210.648438 97.570312 210.648438 L 27.980469 210.648438 C 25.644531 210.648438 24.039062 208.730469 23.738281 206.421875 L 19.308594 172.964844 C 19 170.648438 20.652344 168.742188 22.695312 168.742188 Z M 32.75 168.742188 L 91.300781 168.742188 C 88.519531 165.066406 83.757812 163.128906 79.066406 161.210938 C 78.085938 160.816406 77.113281 160.417969 76.175781 160.011719 C 75.398438 161.066406 74.445312 161.988281 73.363281 162.761719 C 70.777344 164.632812 67.429688 165.707031 63.972656 165.871094 C 60.539062 166.039062 56.976562 165.3125 53.9375 163.566406 C 52.421875 162.695312 51.039062 161.582031 49.871094 160.214844 C 48.730469 160.679688 47.515625 161.125 46.277344 161.597656 C 41.324219 163.480469 35.863281 165.535156 32.75 168.742188 Z M 62.386719 184.503906 C 65.199219 184.503906 67.476562 186.773438 67.476562 189.574219 C 67.476562 192.375 65.199219 194.640625 62.386719 194.640625 C 59.574219 194.640625 57.296875 192.375 57.296875 189.574219 C 57.296875 186.773438 59.574219 184.503906 62.386719 184.503906 Z M 59.847656 147.792969 C 59.378906 147.511719 59.234375 146.902344 59.515625 146.433594 C 59.796875 145.96875 60.410156 145.824219 60.878906 146.105469 C 61.628906 146.5625 62.367188 146.804688 63.085938 146.832031 C 63.808594 146.863281 64.539062 146.6875 65.277344 146.300781 C 65.761719 146.046875 66.367188 146.242188 66.621094 146.726562 C 66.875 147.210938 66.679688 147.8125 66.191406 148.0625 C 65.140625 148.605469 64.078125 148.859375 63.007812 148.808594 C 61.949219 148.761719 60.886719 148.421875 59.847656 147.792969 Z M 71.769531 131.289062 C 73.171875 131.289062 74.300781 132.425781 74.300781 133.808594 C 74.300781 135.207031 73.160156 136.328125 71.769531 136.328125 C 70.375 136.328125 69.238281 135.195312 69.238281 133.808594 C 69.226562 132.414062 70.367188 131.289062 71.769531 131.289062 Z M 54.347656 131.289062 C 55.75 131.289062 56.878906 132.425781 56.878906 133.808594 C 56.878906 135.207031 55.738281 136.328125 54.347656 136.328125 C 52.945312 136.328125 51.816406 135.195312 51.816406 133.808594 C 51.816406 132.414062 52.945312 131.289062 54.347656 131.289062 Z M 42.511719 127.765625 L 42.492188 127.773438 C 42.113281 128.015625 41.8125 128.335938 41.578125 128.742188 C 41.324219 129.179688 41.160156 129.710938 41.070312 130.351562 C 40.878906 131.8125 40.964844 133.394531 41.433594 134.808594 C 41.820312 135.980469 42.492188 137.035156 43.484375 137.800781 C 43.835938 138.074219 44.214844 138.296875 44.625 138.488281 C 45.042969 138.683594 45.492188 138.839844 45.976562 138.957031 C 46.316406 139.03125 46.570312 139.273438 46.699219 139.574219 C 47.679688 142.015625 48.761719 144.207031 49.96875 146.117188 C 51.15625 147.996094 52.46875 149.59375 53.910156 150.894531 C 55.445312 152.277344 56.964844 153.246094 58.453125 153.867188 C 61.1875 155.011719 63.816406 154.941406 66.261719 154.042969 C 68.769531 153.121094 71.105469 151.320312 73.171875 149.042969 C 75.777344 146.164062 77.929688 142.539062 79.457031 138.925781 C 79.554688 138.703125 79.71875 138.527344 79.914062 138.421875 C 81.578125 137.316406 82.804688 136.058594 83.585938 134.777344 C 84.179688 133.808594 84.5 132.832031 84.558594 131.921875 C 84.605469 131.058594 84.410156 130.253906 83.964844 129.574219 C 83.71875 129.21875 83.417969 128.878906 83.03125 128.585938 C 82.25 130.339844 80.945312 132.65625 79.261719 134.953125 L 79.261719 124.429688 C 74.414062 122.191406 71.253906 117.289062 69.636719 109.90625 C 67.699219 123.957031 50.375 123.34375 46.015625 125.914062 L 46.015625 134.109375 C 45.1875 132.957031 44.449219 131.777344 43.777344 130.582031 C 43.234375 129.585938 42.8125 128.65625 42.511719 127.765625 Z M 54.757812 154.15625 C 54.394531 154.679688 53.878906 155.3125 53.277344 155.980469 C 52.769531 156.542969 52.1875 157.140625 51.574219 157.722656 C 52.625 159.136719 53.929688 160.253906 55.378906 161.085938 C 57.917969 162.539062 60.925781 163.148438 63.835938 163.015625 C 66.738281 162.867188 69.519531 161.988281 71.660156 160.4375 C 72.691406 159.691406 73.570312 158.789062 74.222656 157.761719 C 72.761719 156.511719 71.234375 155.183594 70.347656 154.226562 C 69.265625 154.941406 68.136719 155.535156 66.960938 155.960938 C 64.039062 157.035156 60.898438 157.113281 57.636719 155.746094 C 56.691406 155.351562 55.730469 154.828125 54.757812 154.15625 Z M 54.757812 154.15625 " fill-opacity="1" fill-rule="evenodd"/></g><g fill="#000000" fill-opacity="1"><g transform="translate(114.869793, 200.999987)"><g><path d="M 21.125 -19.203125 C 20.613281 -20.128906 19.882812 -20.835938 18.9375 -21.328125 C 17.988281 -21.828125 16.875 -22.078125 15.59375 -22.078125 C 13.382812 -22.078125 11.613281 -21.347656 10.28125 -19.890625 C 8.945312 -18.441406 8.28125 -16.503906 8.28125 -14.078125 C 8.28125 -11.492188 8.976562 -9.472656 10.375 -8.015625 C 11.78125 -6.566406 13.707031 -5.84375 16.15625 -5.84375 C 17.84375 -5.84375 19.265625 -6.269531 20.421875 -7.125 C 21.578125 -7.976562 22.421875 -9.203125 22.953125 -10.796875 L 14.28125 -10.796875 L 14.28125 -15.84375 L 29.15625 -15.84375 L 29.15625 -9.484375 C 28.65625 -7.773438 27.796875 -6.1875 26.578125 -4.71875 C 25.367188 -3.25 23.828125 -2.0625 21.953125 -1.15625 C 20.085938 -0.25 17.984375 0.203125 15.640625 0.203125 C 12.867188 0.203125 10.394531 -0.398438 8.21875 -1.609375 C 6.039062 -2.828125 4.34375 -4.515625 3.125 -6.671875 C 1.914062 -8.835938 1.3125 -11.304688 1.3125 -14.078125 C 1.3125 -16.847656 1.914062 -19.320312 3.125 -21.5 C 4.34375 -23.675781 6.03125 -25.367188 8.1875 -26.578125 C 10.351562 -27.796875 12.820312 -28.40625 15.59375 -28.40625 C 18.957031 -28.40625 21.789062 -27.585938 24.09375 -25.953125 C 26.40625 -24.328125 27.9375 -22.078125 28.6875 -19.203125 Z M 21.125 -19.203125 "/></g></g></g><g fill="#000000" fill-opacity="1"><g transform="translate(145.346769, 200.999987)"><g><path d="M 5.921875 -24.640625 C 4.722656 -24.640625 3.742188 -24.992188 2.984375 -25.703125 C 2.222656 -26.410156 1.84375 -27.28125 1.84375 -28.3125 C 1.84375 -29.382812 2.222656 -30.273438 2.984375 -30.984375 C 3.742188 -31.691406 4.722656 -32.046875 5.921875 -32.046875 C 7.097656 -32.046875 8.0625 -31.691406 8.8125 -30.984375 C 9.570312 -30.273438 9.953125 -29.382812 9.953125 -28.3125 C 9.953125 -27.28125 9.570312 -26.410156 8.8125 -25.703125 C 8.0625 -24.992188 7.097656 -24.640625 5.921875 -24.640625 Z M 9.3125 -22.3125 L 9.3125 0 L 2.484375 0 L 2.484375 -22.3125 Z M 9.3125 -22.3125 "/></g></g></g><g fill="#000000" fill-opacity="1"><g transform="translate(157.145593, 200.999987)"><g><path d="M 9.3125 -18.59375 C 10.113281 -19.820312 11.113281 -20.789062 12.3125 -21.5 C 13.519531 -22.207031 14.851562 -22.5625 16.3125 -22.5625 L 16.3125 -15.3125 L 14.4375 -15.3125 C 12.726562 -15.3125 11.445312 -14.945312 10.59375 -14.21875 C 9.738281 -13.488281 9.3125 -12.203125 9.3125 -10.359375 L 9.3125 0 L 2.484375 0 L 2.484375 -22.3125 L 9.3125 -22.3125 Z M 9.3125 -18.59375 "/></g></g></g><g fill="#000000" fill-opacity="1"><g transform="translate(174.263893, 200.999987)"><g><path d="M 9.3125 -29.59375 L 9.3125 0 L 2.484375 0 L 2.484375 -29.59375 Z M 9.3125 -29.59375 "/></g></g></g><g fill="#000000" fill-opacity="1"><g transform="translate(186.062717, 200.999987)"><g><path d="M 11.5625 0.3125 C 9.613281 0.3125 7.878906 -0.0195312 6.359375 -0.6875 C 4.835938 -1.351562 3.632812 -2.265625 2.75 -3.421875 C 1.875 -4.578125 1.382812 -5.875 1.28125 -7.3125 L 8.046875 -7.3125 C 8.117188 -6.539062 8.472656 -5.914062 9.109375 -5.4375 C 9.753906 -4.957031 10.546875 -4.71875 11.484375 -4.71875 C 12.335938 -4.71875 12.992188 -4.882812 13.453125 -5.21875 C 13.921875 -5.550781 14.15625 -5.984375 14.15625 -6.515625 C 14.15625 -7.160156 13.820312 -7.632812 13.15625 -7.9375 C 12.488281 -8.25 11.410156 -8.585938 9.921875 -8.953125 C 8.316406 -9.328125 6.976562 -9.722656 5.90625 -10.140625 C 4.84375 -10.554688 3.925781 -11.207031 3.15625 -12.09375 C 2.382812 -12.988281 2 -14.195312 2 -15.71875 C 2 -17 2.351562 -18.164062 3.0625 -19.21875 C 3.769531 -20.269531 4.804688 -21.101562 6.171875 -21.71875 C 7.546875 -22.332031 9.179688 -22.640625 11.078125 -22.640625 C 13.878906 -22.640625 16.085938 -21.945312 17.703125 -20.5625 C 19.316406 -19.175781 20.242188 -17.335938 20.484375 -15.046875 L 14.15625 -15.046875 C 14.050781 -15.816406 13.710938 -16.425781 13.140625 -16.875 C 12.566406 -17.332031 11.8125 -17.5625 10.875 -17.5625 C 10.082031 -17.5625 9.472656 -17.40625 9.046875 -17.09375 C 8.617188 -16.789062 8.40625 -16.375 8.40625 -15.84375 C 8.40625 -15.195312 8.742188 -14.710938 9.421875 -14.390625 C 10.097656 -14.078125 11.15625 -13.757812 12.59375 -13.4375 C 14.25 -13.007812 15.597656 -12.585938 16.640625 -12.171875 C 17.679688 -11.765625 18.59375 -11.097656 19.375 -10.171875 C 20.164062 -9.253906 20.570312 -8.023438 20.59375 -6.484375 C 20.59375 -5.171875 20.226562 -4 19.5 -2.96875 C 18.769531 -1.945312 17.71875 -1.144531 16.34375 -0.5625 C 14.96875 0.0195312 13.375 0.3125 11.5625 0.3125 Z M 11.5625 0.3125 "/></g></g></g><g fill="#000000" fill-opacity="1"><g transform="translate(216.859659, 200.999987)"><g><path d="M 5.921875 -24.640625 C 4.722656 -24.640625 3.742188 -24.992188 2.984375 -25.703125 C 2.222656 -26.410156 1.84375 -27.28125 1.84375 -28.3125 C 1.84375 -29.382812 2.222656 -30.273438 2.984375 -30.984375 C 3.742188 -31.691406 4.722656 -32.046875 5.921875 -32.046875 C 7.097656 -32.046875 8.0625 -31.691406 8.8125 -30.984375 C 9.570312 -30.273438 9.953125 -29.382812 9.953125 -28.3125 C 9.953125 -27.28125 9.570312 -26.410156 8.8125 -25.703125 C 8.0625 -24.992188 7.097656 -24.640625 5.921875 -24.640625 Z M 9.3125 -22.3125 L 9.3125 0 L 2.484375 0 L 2.484375 -22.3125 Z M 9.3125 -22.3125 "/></g></g></g><g fill="#000000" fill-opacity="1"><g transform="translate(228.658482, 200.999987)"><g><path d="M 16.078125 -22.5625 C 18.691406 -22.5625 20.78125 -21.710938 22.34375 -20.015625 C 23.90625 -18.328125 24.6875 -16.003906 24.6875 -13.046875 L 24.6875 0 L 17.875 0 L 17.875 -12.125 C 17.875 -13.613281 17.488281 -14.769531 16.71875 -15.59375 C 15.945312 -16.425781 14.90625 -16.84375 13.59375 -16.84375 C 12.289062 -16.84375 11.25 -16.425781 10.46875 -15.59375 C 9.695312 -14.769531 9.3125 -13.613281 9.3125 -12.125 L 9.3125 0 L 2.484375 0 L 2.484375 -22.3125 L 9.3125 -22.3125 L 9.3125 -19.359375 C 10.007812 -20.347656 10.941406 -21.128906 12.109375 -21.703125 C 13.285156 -22.273438 14.609375 -22.5625 16.078125 -22.5625 Z M 16.078125 -22.5625 "/></g></g></g><g fill="#000000" fill-opacity="1"><g transform="translate(264.094961, 200.999987)"><g><path d="M 22.6875 -28.078125 L 22.6875 -22.59375 L 15.234375 -22.59375 L 15.234375 0 L 8.40625 0 L 8.40625 -22.59375 L 0.953125 -22.59375 L 0.953125 -28.078125 Z M 22.6875 -28.078125 "/></g></g></g><g fill="#000000" fill-opacity="1"><g transform="translate(287.732617, 200.999987)"><g><path d="M 23.515625 -11.515625 C 23.515625 -10.878906 23.476562 -10.210938 23.40625 -9.515625 L 7.921875 -9.515625 C 8.023438 -8.128906 8.46875 -7.066406 9.25 -6.328125 C 10.039062 -5.597656 11.007812 -5.234375 12.15625 -5.234375 C 13.863281 -5.234375 15.050781 -5.957031 15.71875 -7.40625 L 23 -7.40625 C 22.625 -5.9375 21.945312 -4.613281 20.96875 -3.4375 C 20 -2.269531 18.78125 -1.351562 17.3125 -0.6875 C 15.851562 -0.0195312 14.21875 0.3125 12.40625 0.3125 C 10.21875 0.3125 8.269531 -0.148438 6.5625 -1.078125 C 4.851562 -2.015625 3.519531 -3.347656 2.5625 -5.078125 C 1.601562 -6.816406 1.125 -8.84375 1.125 -11.15625 C 1.125 -13.476562 1.59375 -15.503906 2.53125 -17.234375 C 3.476562 -18.972656 4.804688 -20.304688 6.515625 -21.234375 C 8.222656 -22.171875 10.1875 -22.640625 12.40625 -22.640625 C 14.5625 -22.640625 16.476562 -22.1875 18.15625 -21.28125 C 19.84375 -20.375 21.15625 -19.078125 22.09375 -17.390625 C 23.039062 -15.710938 23.515625 -13.753906 23.515625 -11.515625 Z M 16.515625 -13.3125 C 16.515625 -14.488281 16.113281 -15.421875 15.3125 -16.109375 C 14.519531 -16.804688 13.519531 -17.15625 12.3125 -17.15625 C 11.164062 -17.15625 10.195312 -16.820312 9.40625 -16.15625 C 8.625 -15.488281 8.140625 -14.539062 7.953125 -13.3125 Z M 16.515625 -13.3125 "/></g></g></g><g fill="#000000" fill-opacity="1"><g transform="translate(312.370177, 200.999987)"><g><path d="M 1.125 -11.15625 C 1.125 -13.476562 1.59375 -15.503906 2.53125 -17.234375 C 3.476562 -18.972656 4.800781 -20.304688 6.5 -21.234375 C 8.195312 -22.171875 10.132812 -22.640625 12.3125 -22.640625 C 15.113281 -22.640625 17.453125 -21.90625 19.328125 -20.4375 C 21.210938 -18.96875 22.453125 -16.898438 23.046875 -14.234375 L 15.765625 -14.234375 C 15.148438 -15.941406 13.960938 -16.796875 12.203125 -16.796875 C 10.941406 -16.796875 9.9375 -16.304688 9.1875 -15.328125 C 8.445312 -14.359375 8.078125 -12.96875 8.078125 -11.15625 C 8.078125 -9.34375 8.445312 -7.945312 9.1875 -6.96875 C 9.9375 -6 10.941406 -5.515625 12.203125 -5.515625 C 13.960938 -5.515625 15.148438 -6.367188 15.765625 -8.078125 L 23.046875 -8.078125 C 22.453125 -5.460938 21.207031 -3.410156 19.3125 -1.921875 C 17.425781 -0.429688 15.09375 0.3125 12.3125 0.3125 C 10.132812 0.3125 8.195312 -0.148438 6.5 -1.078125 C 4.800781 -2.015625 3.476562 -3.347656 2.53125 -5.078125 C 1.59375 -6.816406 1.125 -8.84375 1.125 -11.15625 Z M 1.125 -11.15625 "/></g></g></g><g fill="#000000" fill-opacity="1"><g transform="translate(336.567768, 200.999987)"><g><path d="M 16.203125 -22.5625 C 18.765625 -22.5625 20.816406 -21.710938 22.359375 -20.015625 C 23.910156 -18.328125 24.6875 -16.003906 24.6875 -13.046875 L 24.6875 0 L 17.875 0 L 17.875 -12.125 C 17.875 -13.613281 17.488281 -14.769531 16.71875 -15.59375 C 15.945312 -16.425781 14.90625 -16.84375 13.59375 -16.84375 C 12.289062 -16.84375 11.25 -16.425781 10.46875 -15.59375 C 9.695312 -14.769531 9.3125 -13.613281 9.3125 -12.125 L 9.3125 0 L 2.484375 0 L 2.484375 -29.59375 L 9.3125 -29.59375 L 9.3125 -19.3125 C 10.007812 -20.300781 10.957031 -21.085938 12.15625 -21.671875 C 13.351562 -22.265625 14.703125 -22.5625 16.203125 -22.5625 Z M 16.203125 -22.5625 "/></g></g></g></svg>